<svg xmlns="http://www.w3.org/2000/svg" width="1280" height="640" viewBox="0 0 1280 640" role="img" aria-labelledby="title desc"><title id="title">Waypost · Mail and files. Calendar handoffs.</title><desc id="desc">Independent local CLI and stdio MCP. Mail through Bridge, Drive through the official CLI, Calendar through ICS files.</desc><rect width="1280" height="640" fill="#172331"/><g color="#f3f0e7" transform="translate(73 49) scale(.57)"><path d="M48 82V48L20 20M48 48V14M48 48L76 20" fill="none" stroke="currentColor" stroke-width="9"/><path fill="currentColor" d="M12 12h17v9H21v8h-9zM39 6h18v9H39zM67 12h17v17h-9v-8h-8z"/></g><g fill="#f3f0e7" font-family="-apple-system, BlinkMacSystemFont, Segoe UI, sans-serif"><text x="142" y="91" font-size="33" font-weight="650" letter-spacing="-1">Waypost</text><text x="80" y="284" font-size="64" font-weight="600" letter-spacing="-2.8">Mail and files.</text><text x="80" y="354" font-size="64" font-weight="600" letter-spacing="-2.8">Calendar handoffs.</text><text x="82" y="411" font-size="23" fill="#c3c9c5">A local CLI and MCP for your Proton account.</text></g><path d="M80 148H1200" stroke="#40505d"/><g font-family="ui-monospace, SFMono-Regular, Consolas, monospace" font-size="12" fill="#c3c9c5" letter-spacing="1.8"><text x="81" y="193">LOCAL CLI / STDIO MCP</text><text x="994" y="88">PROJECT BETA</text></g><g stroke="#cc6949" stroke-width="7" fill="none"><path d="M1018 428V322L916 231M1018 322V231M1018 322L1120 231"/></g><g fill="#cc6949"><rect x="907" y="222" width="18" height="18"/><rect x="1009" y="222" width="18" height="18"/><rect x="1111" y="222" width="18" height="18"/></g><g fill="#f3f0e7" font-family="ui-monospace, SFMono-Regular, Consolas, monospace" font-size="13" text-anchor="middle"><text x="916" y="199">MAIL</text><text x="1018" y="199">DRIVE</text><text x="1120" y="199">CALENDAR</text><text x="1018" y="463" fill="#c3c9c5">SUPPORTED ROUTES</text></g><path d="M80 532H1200" stroke="#40505d"/><g font-family="-apple-system, BlinkMacSystemFont, Segoe UI, sans-serif" font-size="14" fill="#c3c9c5"><text x="80" y="578">Independent open source project. Not affiliated with Proton.</text><text x="1200" y="578" text-anchor="end">github.com/baney75/waypost</text></g></svg>
